# Blender 4.1.1
# www.blender.org
mtllib Building.mtl
o Cube
v -1.000000 0.000000 3.000000
v -1.000000 3.000000 3.000000
v -1.000000 0.000000 -3.000000
v -1.000000 3.000000 -3.000000
v 1.000000 0.000000 3.000000
v 1.000000 3.000000 3.000000
v 1.000000 0.000000 -3.000000
v 1.000000 3.000000 -3.000000
v -1.000000 2.089378 3.000000
v -1.000000 2.399708 3.000000
v -1.000000 2.399708 -3.000000
v -1.000000 2.089378 -3.000000
v 1.000000 2.399708 -3.000000
v 1.000000 2.089378 -3.000000
v 1.000000 2.399708 3.000000
v 1.000000 2.089378 3.000000
v 1.084630 2.399708 -3.000000
v 1.084630 2.089378 -3.000000
v 1.084630 2.399708 3.000000
v 1.084630 2.089378 3.000000
v -1.000000 2.399708 -3.087340
v -1.000000 2.089378 -3.087340
v 1.000000 2.399708 -3.087340
v 1.000000 2.089378 -3.087340
v -1.085476 2.089378 3.000000
v -1.085476 2.399708 3.000000
v -1.085476 2.399708 -3.000000
v -1.085476 2.089378 -3.000000
v -1.000000 2.089378 3.090014
v -1.000000 2.399708 3.090014
v 1.000000 2.399708 3.090014
v 1.000000 2.089378 3.090014
vn -1.0000 -0.0000 -0.0000
vn -0.0000 -0.0000 -1.0000
vn 1.0000 -0.0000 -0.0000
vn -0.0000 -0.0000 1.0000
vn -0.0000 -1.0000 -0.0000
vn -0.0000 1.0000 -0.0000
vt 0.855469 0.039063
vt 0.789062 0.023438
s 0
usemtl Material.001
f 10/1/1 2/1/1 4/1/1 11/1/1
f 11/1/2 4/1/2 8/1/2 13/1/2
f 13/1/3 8/1/3 6/1/3 15/1/3
f 15/1/4 6/1/4 2/1/4 10/1/4
f 3/1/5 7/1/5 5/1/5 1/1/5
f 8/1/6 4/1/6 2/1/6 6/1/6
f 5/1/4 16/1/4 9/1/4 1/1/4
f 15/1/6 10/1/6 30/1/6 31/1/6
f 7/1/3 14/1/3 16/1/3 5/1/3
f 13/1/6 15/1/6 19/1/6 17/1/6
f 3/1/2 12/1/2 14/1/2 7/1/2
f 11/1/6 13/1/6 23/1/6 21/1/6
f 1/1/1 9/1/1 12/1/1 3/1/1
f 10/1/6 11/1/6 27/1/6 26/1/6
f 18/2/3 17/2/3 19/2/3 20/2/3
f 15/1/4 16/1/4 20/1/4 19/1/4
f 14/1/2 13/1/2 17/1/2 18/1/2
f 16/1/5 14/1/5 18/1/5 20/1/5
f 22/2/2 21/2/2 23/2/2 24/2/2
f 13/1/3 14/1/3 24/1/3 23/1/3
f 12/1/1 11/1/1 21/1/1 22/1/1
f 14/1/5 12/1/5 22/1/5 24/1/5
f 25/2/1 26/2/1 27/2/1 28/2/1
f 11/1/2 12/1/2 28/1/2 27/1/2
f 12/1/5 9/1/5 25/1/5 28/1/5
f 9/1/4 10/1/4 26/1/4 25/1/4
f 32/2/4 31/2/4 30/2/4 29/2/4
f 16/1/3 15/1/3 31/1/3 32/1/3
f 10/1/1 9/1/1 29/1/1 30/1/1
f 9/1/5 16/1/5 32/1/5 29/1/5
o Cube.001
v -1.100000 0.000000 3.100000
v -1.100000 3.000000 3.100000
v -1.100000 0.000000 2.700000
v -1.100000 3.000000 2.700000
v -0.700000 0.000000 3.100000
v -0.700000 3.000000 3.100000
v -0.700000 0.000000 2.700000
v -0.700000 3.000000 2.700000
vn -1.0000 -0.0000 -0.0000
vn -0.0000 -0.0000 -1.0000
vn 1.0000 -0.0000 -0.0000
vn -0.0000 -0.0000 1.0000
vn -0.0000 -1.0000 -0.0000
vn -0.0000 1.0000 -0.0000
vt 0.781250 0.031250
s 0
usemtl Material.002
f 33/3/7 34/3/7 36/3/7 35/3/7
f 35/3/8 36/3/8 40/3/8 39/3/8
f 39/3/9 40/3/9 38/3/9 37/3/9
f 37/3/10 38/3/10 34/3/10 33/3/10
f 35/3/11 39/3/11 37/3/11 33/3/11
f 40/3/12 36/3/12 34/3/12 38/3/12
o Cube.002
v 0.700000 0.000000 3.100000
v 0.700000 3.000000 3.100000
v 0.700000 0.000000 2.700000
v 0.700000 3.000000 2.700000
v 1.100000 0.000000 3.100000
v 1.100000 3.000000 3.100000
v 1.100000 0.000000 2.700000
v 1.100000 3.000000 2.700000
vn -1.0000 -0.0000 -0.0000
vn -0.0000 -0.0000 -1.0000
vn 1.0000 -0.0000 -0.0000
vn -0.0000 -0.0000 1.0000
vn -0.0000 -1.0000 -0.0000
vn -0.0000 1.0000 -0.0000
vt 0.785156 0.031250
s 0
usemtl Material.002
f 41/4/13 42/4/13 44/4/13 43/4/13
f 43/4/14 44/4/14 48/4/14 47/4/14
f 47/4/15 48/4/15 46/4/15 45/4/15
f 45/4/16 46/4/16 42/4/16 41/4/16
f 43/4/17 47/4/17 45/4/17 41/4/17
f 48/4/18 44/4/18 42/4/18 46/4/18
o Cube.003
v 0.700000 0.000000 -2.700000
v 0.700000 3.000000 -2.700000
v 0.700000 0.000000 -3.100000
v 0.700000 3.000000 -3.100000
v 1.100000 0.000000 -2.700000
v 1.100000 3.000000 -2.700000
v 1.100000 0.000000 -3.100000
v 1.100000 3.000000 -3.100000
vn -1.0000 -0.0000 -0.0000
vn -0.0000 -0.0000 -1.0000
vn 1.0000 -0.0000 -0.0000
vn -0.0000 -0.0000 1.0000
vn -0.0000 -1.0000 -0.0000
vn -0.0000 1.0000 -0.0000
vt 0.781250 0.031250
s 0
usemtl Material.002
f 49/5/19 50/5/19 52/5/19 51/5/19
f 51/5/20 52/5/20 56/5/20 55/5/20
f 55/5/21 56/5/21 54/5/21 53/5/21
f 53/5/22 54/5/22 50/5/22 49/5/22
f 51/5/23 55/5/23 53/5/23 49/5/23
f 56/5/24 52/5/24 50/5/24 54/5/24
o Cube.004
v -1.100000 0.000000 -2.700000
v -1.100000 3.000000 -2.700000
v -1.100000 0.000000 -3.100000
v -1.100000 3.000000 -3.100000
v -0.700000 0.000000 -2.700000
v -0.700000 3.000000 -2.700000
v -0.700000 0.000000 -3.100000
v -0.700000 3.000000 -3.100000
vn -1.0000 -0.0000 -0.0000
vn -0.0000 -0.0000 -1.0000
vn 1.0000 -0.0000 -0.0000
vn -0.0000 -0.0000 1.0000
vn -0.0000 -1.0000 -0.0000
vn -0.0000 1.0000 -0.0000
vt 0.781250 0.031250
s 0
usemtl Material.002
f 57/6/25 58/6/25 60/6/25 59/6/25
f 59/6/26 60/6/26 64/6/26 63/6/26
f 63/6/27 64/6/27 62/6/27 61/6/27
f 61/6/28 62/6/28 58/6/28 57/6/28
f 59/6/29 63/6/29 61/6/29 57/6/29
f 64/6/30 60/6/30 58/6/30 62/6/30
o Cube.005
v -1.084890 2.915110 3.084890
v -1.084890 2.915110 -3.084890
v 1.084890 2.915110 3.084890
v 1.084890 2.915110 -3.084890
v -0.131158 3.984890 2.131158
v -1.084890 3.031158 3.084890
v -0.805548 3.705548 2.805548
v -0.131158 3.984890 -2.131158
v -1.084890 3.031158 -3.084890
v -0.805548 3.705548 -2.805549
v 0.131158 3.984890 2.131158
v 1.084890 3.031158 3.084890
v 0.805548 3.705548 2.805548
v 0.131158 3.984890 -2.131158
v 1.084890 3.031158 -3.084890
v 0.805548 3.705548 -2.805549
vn -0.0000 1.0000 -0.0000
vn 1.0000 -0.0000 -0.0000
vn -1.0000 -0.0000 -0.0000
vn -0.0000 -1.0000 -0.0000
vn -0.0000 -0.0000 -1.0000
vn -0.3827 0.9239 -0.0000
vn -0.9239 0.3827 -0.0000
vn -0.0000 0.9239 -0.3827
vn -0.0000 0.3827 -0.9239
vn 0.3827 0.9239 -0.0000
vn 0.9239 0.3827 -0.0000
vn -0.0000 0.9239 0.3827
vn -0.0000 0.3827 0.9239
vn -0.0000 -0.0000 1.0000
vt 0.535156 0.160156
s 0
usemtl wall
f 78/7/31 72/7/31 69/7/31 75/7/31
f 68/7/32 79/7/32 76/7/32 67/7/32
f 65/7/33 70/7/33 73/7/33 66/7/33
f 66/7/34 68/7/34 67/7/34 65/7/34
f 66/7/35 73/7/35 79/7/35 68/7/35
f 69/7/36 72/7/36 74/7/36 71/7/36
f 71/7/37 74/7/37 73/7/37 70/7/37
f 72/7/38 78/7/38 80/7/38 74/7/38
f 74/7/39 80/7/39 79/7/39 73/7/39
f 78/7/40 75/7/40 77/7/40 80/7/40
f 80/7/41 77/7/41 76/7/41 79/7/41
f 75/7/42 69/7/42 71/7/42 77/7/42
f 77/7/43 71/7/43 70/7/43 76/7/43
f 67/7/44 76/7/44 70/7/44 65/7/44
