# Blender 4.1.1
# www.blender.org
mtllib virage1.mtl
o Plane.002
v -2.000000 -0.000001 -10.000000
v 4.000000 -0.000001 -10.000000
v -2.000000 -0.000002 -22.000000
v 4.000000 -0.000002 -22.000000
v 0.000000 -0.000001 -10.000000
v 0.000000 -0.000002 -22.000000
v -2.000000 -0.000002 -20.000000
v 4.000000 -0.000002 -20.000000
v 0.000000 -0.000002 -20.000000
v 3.798322 -0.000001 -10.000000
v 3.798322 -0.000002 -22.000000
v 3.798322 -0.000002 -20.000000
v -2.000000 -0.000001 -18.000000
v -2.000000 -0.000001 -16.000000
v -2.000000 -0.000001 -14.000000
v -2.000000 -0.000001 -12.000000
v 4.000000 -0.000001 -12.000000
v 4.000000 -0.000001 -14.000000
v 4.000000 -0.000001 -16.000000
v 4.000000 -0.000001 -18.000000
v 0.000000 -0.000001 -12.000000
v 0.000000 -0.000001 -14.000000
v 0.000000 -0.000001 -16.000000
v 0.000000 -0.000001 -18.000000
v 3.798322 -0.000001 -12.000000
v 3.798322 -0.000001 -14.000000
v 3.798322 -0.000001 -16.000000
v 3.798322 -0.000001 -18.000000
v 2.000524 -0.000002 -22.000000
v 2.000524 -0.000002 -20.000000
v 2.000524 -0.000001 -10.000000
v 2.000524 -0.000001 -12.000000
v 2.000524 -0.000001 -14.000000
v 2.000524 -0.000001 -16.000000
v 2.000524 -0.000001 -18.000000
v -2.000000 0.076989 -22.000000
v 3.798322 0.076989 -22.000000
v 3.798322 0.076989 -20.000000
v 4.000000 0.029836 -20.000000
v 3.952847 0.076989 -20.000000
v 3.986189 0.063178 -20.000000
v 3.952847 0.076989 -22.000000
v 4.000000 0.029836 -22.000000
v 3.986189 0.063178 -22.000000
v 1.953372 0.076989 -22.000000
v 2.047676 0.076989 -22.000000
v 2.000524 0.029836 -22.000000
v 2.000524 0.047515 -22.000000
v 2.047676 0.076989 -20.000000
v 1.953372 0.076989 -20.000000
v 2.000524 0.029836 -20.000000
v 2.000524 0.047515 -20.000000
v -2.000000 0.076990 -11.962807
v -2.000000 0.076990 -12.037193
v -2.000000 0.039796 -12.000000
v -2.000000 0.052916 -12.000000
v -2.000000 0.039796 -10.000000
v -2.000000 0.076990 -10.037193
v -2.000000 0.066096 -10.010894
v 0.000000 0.076990 -10.037193
v 0.000000 0.039796 -10.000000
v 0.000000 0.066096 -10.010894
v 0.000000 0.076990 -18.037193
v 0.000000 0.076990 -17.962807
v 0.000000 0.039796 -18.000000
v 0.000000 0.052916 -18.000000
v -2.000000 0.076990 -17.962807
v -2.000000 0.076990 -18.037193
v -2.000000 0.039796 -18.000000
v -2.000000 0.052916 -18.000000
v -2.000000 0.076990 -15.962807
v -2.000000 0.076990 -16.037193
v -2.000000 0.039796 -16.000000
v -2.000000 0.052916 -16.000000
v -2.000000 0.076990 -13.962807
v -2.000000 0.076990 -14.037193
v -2.000000 0.039796 -14.000000
v -2.000000 0.052916 -14.000000
v 0.000000 0.076990 -12.037193
v 0.000000 0.076990 -11.962807
v 0.000000 0.039796 -12.000000
v 0.000000 0.052916 -12.000000
v 0.000000 0.076990 -14.037193
v 0.000000 0.076990 -13.962807
v 0.000000 0.039796 -14.000000
v 0.000000 0.052916 -14.000000
v 0.000000 0.076990 -16.037193
v 0.000000 0.076990 -15.962807
v 0.000000 0.039796 -16.000000
v 0.000000 0.052916 -16.000000
v -0.620444 0.076989 -22.000000
v 0.000000 0.076989 -21.379555
v 0.620444 0.076989 -22.000000
v 0.000000 0.000048 -22.000000
v -0.181724 0.076989 -21.818275
v 0.000000 0.067785 -21.925785
v 0.181724 0.076989 -21.818275
v 0.179888 0.054112 -22.000000
v -0.179887 0.054112 -22.000000
v 0.000000 0.000048 -20.000000
v 0.620444 0.076989 -20.000000
v 0.000000 0.076989 -20.620445
v -0.620444 0.076989 -20.000000
v 0.000000 0.076990 -19.379555
v 0.179888 0.054112 -20.000000
v 0.000000 0.069961 -20.000000
v 0.181724 0.076989 -20.181725
v -0.181724 0.076989 -20.181725
v -0.181724 0.076990 -19.818275
v 0.000000 0.054113 -19.820112
v -2.000000 0.076990 -19.379555
v -1.379556 0.076989 -20.000000
v -2.000000 0.076989 -20.620445
v -2.000000 0.000048 -20.000000
v -1.818276 0.076990 -19.818275
v -1.925786 0.067785 -20.000000
v -1.818276 0.076989 -20.181725
v -2.000000 0.054112 -20.179888
v -2.000000 0.054113 -19.820110
v 0.179189 0.031825 -20.000698
v -0.000699 0.047673 -20.000698
v -0.000699 0.031826 -19.820810
v 0.619746 0.054701 -20.000698
v 0.181026 0.054701 -20.182423
v -0.000699 0.054701 -20.621143
v -0.182422 0.054701 -20.182423
v -0.621143 0.054701 -20.000698
v -0.182422 0.054702 -19.818974
v -0.000699 0.054702 -19.380253
vn 1.0000 -0.0000 -0.0000
vn -1.0000 -0.0000 -0.0000
vn -0.0000 1.0000 -0.0000
vn -0.0000 -0.0000 -1.0000
vn -0.0000 -0.0000 1.0000
vn 0.0001 -0.0000 -1.0000
vn 0.9239 0.3827 -0.0000
vn 0.3827 0.9239 -0.0000
vn -0.5301 0.8480 -0.0000
vn 0.5301 0.8480 -0.0000
vn -0.0000 0.3827 0.9239
vn -0.0000 0.9239 0.3827
vn -0.0000 0.8395 0.5434
vn -0.0000 0.8395 -0.5434
vn 0.0296 0.9918 -0.1246
vn -0.0000 0.9999 -0.0168
vn -0.0296 0.9918 -0.1246
vn -0.0000 0.7386 -0.6741
vn 0.7071 -0.0000 0.7071
vn -0.9237 0.0170 0.3826
vn 0.3824 -0.0409 0.9231
vn -0.9995 0.0313 0.0028
vn 0.9237 -0.0170 -0.3826
vn -0.1246 0.9918 -0.0296
vn -0.0168 0.9999 -0.0000
vn -0.1246 0.9918 0.0296
vn -0.6741 0.7386 -0.0000
vn -0.0112 0.9921 0.1248
vn -0.0000 0.9999 0.0113
vn 0.0113 0.9999 -0.0000
vn 0.1248 0.9921 -0.0112
vn -0.9995 0.0314 -0.0016
vn -0.0016 0.0314 -0.9995
vn 0.3826 0.0169 -0.9237
vn 0.9231 -0.0409 0.3824
vn -0.3826 -0.0169 0.9237
vn 0.0027 0.0312 -0.9995
vt 0.986661 0.406988
vt 0.906051 0.034941
vt 0.850244 0.022540
s 0
usemtl Material.002
f 22/1/1 23/1/1 89/1/1 88/1/1 83/1/1 85/1/1
f 14/1/2 15/1/2 77/1/2 76/1/2 71/1/2 73/1/2
f 28/1/3 20/1/3 8/1/3 12/1/3
f 35/1/3 28/1/3 12/1/3 30/1/3
f 29/1/4 6/1/4 94/1/4 98/1/4 93/1/4 45/1/4 47/1/4
f 31/1/3 10/1/3 25/1/3 32/1/3
f 32/1/3 25/1/3 26/1/3 33/1/3
f 33/1/3 26/1/3 27/1/3 34/1/3
f 34/1/3 27/1/3 28/1/3 35/1/3
f 10/2/3 2/2/3 17/2/3 25/2/3
f 25/1/3 17/1/3 18/1/3 26/1/3
f 26/2/3 18/2/3 19/2/3 27/2/3
f 27/1/3 19/1/3 20/1/3 28/1/3
f 23/1/1 24/1/1 65/1/1 64/1/1 87/1/1 89/1/1
f 13/1/2 14/1/2 73/1/2 72/1/2 67/1/2 69/1/2
f 38/3/3 40/3/3 42/3/3 37/3/3
f 3/1/2 7/1/2 114/1/2 118/1/2 113/1/2 36/1/2
f 23/1/3 34/1/3 35/1/3 24/1/3
f 22/1/3 33/1/3 34/1/3 23/1/3
f 21/1/3 32/1/3 33/1/3 22/1/3
f 5/1/3 31/1/3 32/1/3 21/1/3
f 68/3/3 63/3/3 104/3/3 109/3/3 103/3/3 112/3/3 115/3/3 111/3/3
f 24/1/3 35/1/3 30/1/3 9/1/3
f 4/1/4 11/1/4 37/1/4 42/1/4 44/1/4 43/1/4
f 102/3/3 107/3/3 101/3/3 50/3/3 45/3/3 93/3/3 97/3/3 92/3/3
f 30/1/5 12/1/5 38/1/5 49/1/5 51/1/5
f 15/1/2 16/1/2 55/1/2 54/1/2 75/1/2 77/1/2
f 1/1/5 5/1/5 61/1/5 57/1/5
f 21/1/1 22/1/1 85/1/1 84/1/1 79/1/1 81/1/1
f 9/1/5 30/1/5 51/1/5 50/1/5 101/1/5 105/1/5 100/1/5
f 11/1/4 29/1/4 47/1/4 46/1/4 37/1/4
f 5/1/1 21/1/1 81/1/1 80/1/1 60/1/1 62/1/1 61/1/1
f 76/3/3 83/3/3 88/3/3 71/3/3
f 6/1/4 3/1/4 36/1/4 91/1/4 99/1/4 94/1/4
f 54/3/3 79/3/3 84/3/3 75/3/3
f 24/1/1 9/1/1 100/1/1 110/1/1 104/1/1 63/1/1 65/1/1
f 72/3/3 87/3/3 64/3/3 67/3/3
f 8/1/1 4/1/1 43/1/1 39/1/1
f 7/1/2 13/1/2 69/1/2 68/1/2 111/1/2 119/1/2 114/1/2
f 58/3/3 60/3/3 80/3/3 53/3/3
f 49/3/3 38/3/3 37/3/3 46/3/3
f 45/1/6 48/1/6 47/1/6
f 48/1/4 46/1/4 47/1/4
f 49/1/5 52/1/5 51/1/5
f 52/1/5 50/1/5 51/1/5
f 39/1/7 43/1/7 44/1/7 41/1/7
f 41/1/8 44/1/8 42/1/8 40/1/8
f 49/1/9 46/1/9 48/1/9 52/1/9
f 52/1/10 48/1/10 45/1/10 50/1/10
f 12/1/5 8/1/5 39/1/5 41/1/5 40/1/5 38/1/5
f 53/1/2 56/1/2 55/1/2
f 56/1/2 54/1/2 55/1/2
f 63/1/1 66/1/1 65/1/1
f 66/1/1 64/1/1 65/1/1
f 67/1/2 70/1/2 69/1/2
f 70/1/2 68/1/2 69/1/2
f 71/1/2 74/1/2 73/1/2
f 74/1/2 72/1/2 73/1/2
f 75/1/2 78/1/2 77/1/2
f 78/1/2 76/1/2 77/1/2
f 79/1/1 82/1/1 81/1/1
f 82/1/1 80/1/1 81/1/1
f 83/1/1 86/1/1 85/1/1
f 86/1/1 84/1/1 85/1/1
f 87/1/1 90/1/1 89/1/1
f 90/1/1 88/1/1 89/1/1
f 57/1/11 61/1/11 62/1/11 59/1/11
f 59/1/12 62/1/12 60/1/12 58/1/12
f 79/1/13 54/1/13 56/1/13 82/1/13
f 82/1/14 56/1/14 53/1/14 80/1/14
f 83/1/13 76/1/13 78/1/13 86/1/13
f 86/1/14 78/1/14 75/1/14 84/1/14
f 87/1/13 72/1/13 74/1/13 90/1/13
f 90/1/14 74/1/14 71/1/14 88/1/14
f 63/1/13 68/1/13 70/1/13 66/1/13
f 66/1/14 70/1/14 67/1/14 64/1/14
f 16/1/2 1/1/2 57/1/2 59/1/2 58/1/2 53/1/2 55/1/2
f 91/3/15 95/3/15 96/3/15 99/3/15
f 92/3/16 97/3/16 96/3/16 95/3/16
f 93/3/17 98/3/17 96/3/17 97/3/17
f 94/1/18 99/1/18 96/1/18 98/1/18
f 100/1/19 105/1/19 106/1/19 110/1/19
f 107/1/20 102/1/20 125/1/20 124/1/20
f 108/1/21 103/1/21 127/1/21 126/1/21
f 110/1/22 106/1/22 121/1/22 122/1/22
f 109/1/23 104/1/23 129/1/23 128/1/23
f 111/3/24 115/3/24 116/3/24 119/3/24
f 112/3/25 117/3/25 116/3/25 115/3/25
f 113/3/26 118/3/26 116/3/26 117/3/26
f 114/1/27 119/1/27 116/1/27 118/1/27
f 113/3/3 117/3/3 112/3/3 103/3/3 108/3/3 102/3/3 92/3/3 95/3/3 91/3/3 36/3/3
f 123/3/28 124/3/28 121/3/28 120/3/28
f 125/3/29 126/3/29 121/3/29 124/3/29
f 127/3/30 128/3/30 121/3/30 126/3/30
f 129/3/31 122/3/31 121/3/31 128/3/31
f 104/1/32 110/1/32 122/1/32 129/1/32
f 105/1/33 101/1/33 123/1/33 120/1/33
f 103/1/34 109/1/34 128/1/34 127/1/34
f 102/1/35 108/1/35 126/1/35 125/1/35
f 101/1/36 107/1/36 124/1/36 123/1/36
f 106/1/37 105/1/37 120/1/37 121/1/37
o Plane.003
v 4.000000 -0.000001 -10.000000
v 10.000000 -0.000001 -10.000000
v 4.000000 -0.000002 -22.000000
v 10.000000 -0.000002 -22.000000
v 4.000000 -0.000002 -20.000000
v 4.000000 -0.000001 -18.000000
v 4.000000 -0.000001 -16.000000
v 4.000000 -0.000001 -14.000000
v 4.000000 -0.000001 -12.000000
v 10.000000 -0.000001 -12.000000
v 10.000000 -0.000001 -14.000000
v 10.000000 -0.000001 -16.000000
v 10.000000 -0.000001 -18.000000
v 10.000000 -0.000002 -20.000000
v 6.000000 -0.000001 -10.000000
v 8.000000 -0.000001 -10.000000
v 8.000000 -0.000002 -22.000000
v 6.000000 -0.000002 -22.000000
v 8.000000 -0.000001 -12.000000
v 6.000000 -0.000001 -12.000000
v 8.000000 -0.000001 -14.000000
v 6.000000 -0.000001 -14.000000
v 8.000000 -0.000001 -16.000000
v 6.000000 -0.000001 -16.000000
v 8.000000 -0.000001 -18.000000
v 6.000000 -0.000001 -18.000000
v 8.000000 -0.000002 -20.000000
v 6.000000 -0.000002 -20.000000
v 8.000000 0.027659 -10.000000
v 8.000000 0.065521 -10.037863
v 8.000000 0.054432 -10.011090
v 10.000000 0.065521 -10.037863
v 10.000000 0.027659 -10.000000
v 10.000000 0.054432 -10.011090
v 10.000000 0.027659 -12.000000
v 10.000000 0.065521 -11.962137
v 10.000000 0.054432 -11.988910
v 8.000000 0.065521 -11.962137
v 8.000000 0.027659 -12.000000
v 8.000000 0.054432 -11.988910
v 4.000000 -0.000001 -16.197897
v 10.000000 -0.000001 -16.197897
v 6.000000 -0.000001 -16.197897
v 8.000000 -0.000001 -16.197897
v 4.000000 -0.000001 -15.819048
v 10.000000 -0.000001 -15.819048
v 6.000000 -0.000001 -15.819048
v 8.000000 -0.000001 -15.819048
v 10.000000 0.023174 -20.000000
v 9.952080 0.071094 -20.000000
v 9.985964 0.057058 -20.000000
v 9.952080 0.071094 -22.000000
v 10.000000 0.023174 -22.000000
v 9.985964 0.057058 -22.000000
v 5.952080 0.071094 -22.000000
v 6.047920 0.071094 -22.000000
v 6.000000 0.023174 -22.000000
v 6.000000 0.051318 -22.000000
v 4.000000 0.023174 -22.000000
v 4.047920 0.071094 -22.000000
v 4.014035 0.057058 -22.000000
v 4.047920 0.071094 -20.000000
v 4.000000 0.023174 -20.000000
v 4.014035 0.057058 -20.000000
v 6.047920 0.071094 -20.000000
v 5.952080 0.071094 -20.000000
v 6.000000 0.023174 -20.000000
v 6.000000 0.051318 -20.000000
v 7.952080 0.071094 -22.000000
v 8.047920 0.071094 -22.000000
v 8.000000 0.023174 -22.000000
v 8.000000 0.051318 -22.000000
v 8.047920 0.071094 -20.000000
v 7.952080 0.071094 -20.000000
v 8.000000 0.023174 -20.000000
v 8.000000 0.051318 -20.000000
v 4.158524 -0.000001 -12.000000
v 4.158524 -0.000001 -14.000000
v 4.158524 -0.000001 -16.000000
v 4.158524 -0.000001 -18.000000
v 4.158524 -0.000002 -20.000000
v 4.158524 -0.000001 -10.000000
v 4.158524 -0.000001 -16.197897
v 4.158524 -0.000001 -15.819048
vn -0.0000 -0.0000 -1.0000
vn -0.0000 1.0000 -0.0000
vn -1.0000 -0.0000 -0.0000
vn -0.0000 -0.0000 1.0000
vn 1.0000 -0.0000 -0.0000
vn -0.0000 0.3827 0.9239
vn -0.0000 0.9239 0.3827
vn -0.0000 0.3827 -0.9239
vn -0.0000 0.9239 -0.3827
vn 0.9239 0.3827 -0.0000
vn 0.3827 0.9239 -0.0000
vn -0.9239 0.3827 -0.0000
vn -0.3827 0.9239 -0.0000
vn -0.3815 0.9244 -0.0000
vn 0.3815 0.9244 -0.0000
vt 0.989862 0.416289
vt 0.906151 0.028740
vt 0.906151 0.034941
vt 0.915453 0.034941
s 0
usemtl Material.002
f 139/4/38 148/4/38 168/4/38 164/4/38
f 148/4/39 139/4/39 140/4/39 150/4/39
f 177/4/39 175/4/39 141/4/39 152/4/39
f 173/4/39 171/4/39 142/4/39 154/4/39
f 154/4/39 142/4/39 143/4/39 156/4/39
f 209/4/39 155/4/39 157/4/39 210/4/39
f 155/4/39 154/4/39 156/4/39 157/4/39
f 212/4/39 172/4/39 155/4/39 209/4/39
f 172/4/39 173/4/39 154/4/39 155/4/39
f 213/4/39 176/4/39 153/4/39 208/4/39
f 176/5/39 177/5/39 152/5/39 153/5/39
f 206/4/39 149/4/39 151/4/39 207/4/39
f 149/4/39 148/4/39 150/4/39 151/4/39
f 211/4/39 144/4/39 149/4/39 206/4/39
f 144/4/39 145/4/39 148/4/39 149/4/39
f 132/4/40 134/4/40 192/4/40 188/4/40
f 157/4/41 156/4/41 204/4/41 203/4/41 194/4/41 196/4/41
f 148/4/40 145/4/40 158/4/40 160/4/40 159/4/40 167/4/40 169/4/40 168/4/40
f 131/4/42 139/4/42 164/4/42 166/4/42 165/4/42 161/4/42 163/4/42 162/4/42
f 159/6/39 161/6/39 165/6/39 167/6/39
f 158/4/43 162/4/43 163/4/43 160/4/43
f 160/4/44 163/4/44 161/4/44 159/4/44
f 164/4/45 168/4/45 169/4/45 166/4/45
f 166/4/46 169/4/46 167/4/46 165/4/46
f 145/4/41 131/4/41 162/4/41 158/4/41
f 153/5/39 152/5/39 173/5/39 172/5/39
f 208/4/39 153/4/39 172/4/39 212/4/39
f 152/4/39 141/4/39 171/4/39 173/4/39
f 151/4/39 150/4/39 177/4/39 176/4/39
f 207/4/39 151/4/39 176/4/39 213/4/39
f 150/4/39 140/4/39 175/4/39 177/4/39
f 156/4/41 143/4/41 178/4/41 180/4/41 179/4/41 202/4/41 204/4/41
f 146/4/38 147/4/38 186/4/38 185/4/38 198/4/38 200/4/38
f 147/4/38 132/4/38 188/4/38 190/4/38 189/4/38 184/4/38 186/4/38
f 191/6/39 195/6/39 184/6/39 189/6/39
f 134/4/41 210/4/41 157/4/41 196/4/41 195/4/41 191/4/41 193/4/41 192/4/41
f 202/6/39 179/6/39 181/6/39 199/6/39
f 194/6/39 203/6/39 198/6/39 185/6/39
f 133/4/38 146/4/38 200/4/38 199/4/38 181/4/38 183/4/38 182/4/38
f 184/4/38 187/4/38 186/4/38
f 187/4/38 185/4/38 186/4/38
f 194/4/41 197/4/41 196/4/41
f 197/4/41 195/4/41 196/4/41
f 198/4/38 201/4/38 200/4/38
f 201/4/38 199/4/38 200/4/38
f 202/4/41 205/4/41 204/4/41
f 205/4/41 203/4/41 204/4/41
f 178/4/47 182/4/47 183/4/47 180/4/47
f 180/4/48 183/4/48 181/4/48 179/4/48
f 188/4/49 192/4/49 193/4/49 190/4/49
f 190/4/50 193/4/50 191/4/50 189/4/50
f 194/4/51 185/4/51 187/4/51 197/4/51
f 197/4/52 187/4/52 184/4/52 195/4/52
f 202/4/51 199/4/51 201/4/51 205/4/51
f 205/4/52 201/4/52 198/4/52 203/4/52
f 143/4/42 133/4/42 182/4/42 178/4/42
f 137/7/39 207/7/39 213/7/39 174/7/39
f 136/4/39 208/4/39 212/4/39 170/4/39
f 130/7/39 211/7/39 206/7/39 138/7/39
f 138/4/39 206/4/39 207/4/39 137/4/39
f 174/7/39 213/7/39 208/7/39 136/7/39
f 170/4/39 212/4/39 209/4/39 135/4/39
f 135/4/39 209/4/39 210/4/39 134/4/39
